<svg width="58" height="15" viewBox="0 0 58 15" fill="none" xmlns="http://www.w3.org/2000/svg">
<path d="M51.94 5.1C51.8 4.6 51.6 4.08 51.3 3.56C51.02 3.04 50.6 2.58 50.04 2.16C49.48 1.76 48.82 1.38 48.04 1.04C47.26 0.699999 46.28 0.439999 45.12 0.28C43.96 0.0999999 42.66 0 41.2 0H0V14.14H41.24C42.96 14.14 44.5 14 45.84 13.72C47.16 13.42 48.22 13.06 49 12.62C49.78 12.16 50.4 11.62 50.9 11C51.4 10.36 51.72 9.74 51.88 9.16C52.06 8.58 52.14 7.94 52.14 7.26V6.7C52.14 6.12 52.08 5.6 51.94 5.1ZM47.06 7.1C47.06 9.54 44.98 10.74 40.84 10.74H4.84V3.36H40.84C44.98 3.36 47.06 4.56 47.06 6.98V7.1Z" fill="#BCFE2F"/>
<path d="M57.3848 11.82H53.2448V14.58H57.3848V11.82Z" fill="#BCFE2F"/>
</svg>
